<?xml version="1.0" encoding="UTF-8" standalone="no"?>
<!DOCTYPE svg PUBLIC "-//W3C//DTD SVG 1.1//EN"
 "http://www.w3.org/Graphics/SVG/1.1/DTD/svg11.dtd">
<!-- Generated by graphviz version 2.43.0 (0)
 -->
<!-- Title: G Pages: 1 -->
<svg width="1095pt" height="615pt"
 viewBox="0.00 0.00 1095.20 614.89" xmlns="http://www.w3.org/2000/svg" xmlns:xlink="http://www.w3.org/1999/xlink">
<g id="graph0" class="graph" transform="scale(1 1) rotate(0) translate(21.6 593.29)">
<title>G</title>
<polygon fill="#111111" stroke="transparent" points="-21.6,21.6 -21.6,-593.29 1073.6,-593.29 1073.6,21.6 -21.6,21.6"/>
<!-- components/Dock.jsx -->
<g id="node1" class="node">
<title>components/Dock.jsx</title>
<path fill="none" stroke="#c6c5fe" d="M704.33,-511.01C704.33,-511.01 573.67,-511.01 573.67,-511.01 569.83,-511.01 566,-507.17 566,-503.34 566,-503.34 566,-495.67 566,-495.67 566,-491.84 569.83,-488.01 573.67,-488.01 573.67,-488.01 704.33,-488.01 704.33,-488.01 708.17,-488.01 712,-491.84 712,-495.67 712,-495.67 712,-503.34 712,-503.34 712,-507.17 708.17,-511.01 704.33,-511.01"/>
<text text-anchor="middle" x="639" y="-495.81" font-family="Arial" font-size="14.00" fill="#c6c5fe">components/Dock.jsx</text>
</g>
<!-- constants/index.js -->
<g id="node2" class="node">
<title>constants/index.js</title>
<path fill="none" stroke="#cfffac" d="M1044.33,-211.01C1044.33,-211.01 935.67,-211.01 935.67,-211.01 931.83,-211.01 928,-207.17 928,-203.34 928,-203.34 928,-195.67 928,-195.67 928,-191.84 931.83,-188.01 935.67,-188.01 935.67,-188.01 1044.33,-188.01 1044.33,-188.01 1048.17,-188.01 1052,-191.84 1052,-195.67 1052,-195.67 1052,-203.34 1052,-203.34 1052,-207.17 1048.17,-211.01 1044.33,-211.01"/>
<text text-anchor="middle" x="990" y="-195.81" font-family="Arial" font-size="14.00" fill="#cfffac">constants/index.js</text>
</g>
<!-- components/Dock.jsx&#45;&gt;constants/index.js -->
<g id="edge1" class="edge">
<title>components/Dock.jsx&#45;&gt;constants/index.js</title>
<path fill="none" stroke="#757575" d="M712.2,-491.49C723.86,-488.62 735.54,-484.75 746,-479.51 864.91,-419.92 950.18,-274.09 978.64,-220.07"/>
<polygon fill="#757575" stroke="#757575" points="981.8,-221.59 983.29,-211.1 975.59,-218.37 981.8,-221.59"/>
</g>
<!-- store/window.js -->
<g id="node3" class="node">
<title>store/window.js</title>
<path fill="none" stroke="#c6c5fe" d="M883.33,-309.01C883.33,-309.01 790.67,-309.01 790.67,-309.01 786.83,-309.01 783,-305.17 783,-301.34 783,-301.34 783,-293.67 783,-293.67 783,-289.84 786.83,-286.01 790.67,-286.01 790.67,-286.01 883.33,-286.01 883.33,-286.01 887.17,-286.01 891,-289.84 891,-293.67 891,-293.67 891,-301.34 891,-301.34 891,-305.17 887.17,-309.01 883.33,-309.01"/>
<text text-anchor="middle" x="837" y="-293.81" font-family="Arial" font-size="14.00" fill="#c6c5fe">store/window.js</text>
</g>
<!-- components/Dock.jsx&#45;&gt;store/window.js -->
<g id="edge2" class="edge">
<title>components/Dock.jsx&#45;&gt;store/window.js</title>
<path fill="none" stroke="#757575" d="M712.22,-495.15C724.34,-491.92 736.15,-486.98 746,-479.51 760.03,-468.86 807.02,-363.88 826.94,-318.37"/>
<polygon fill="#757575" stroke="#757575" points="830.18,-319.7 830.98,-309.13 823.77,-316.9 830.18,-319.7"/>
</g>
<!-- store/window.js&#45;&gt;constants/index.js -->
<g id="edge18" class="edge">
<title>store/window.js&#45;&gt;constants/index.js</title>
<path fill="none" stroke="#757575" d="M855.91,-285.88C882.36,-268.71 932.03,-236.48 962.64,-216.61"/>
<polygon fill="#757575" stroke="#757575" points="964.63,-219.5 971.11,-211.12 960.81,-213.62 964.63,-219.5"/>
</g>
<!-- components/Home.jsx -->
<g id="node4" class="node">
<title>components/Home.jsx</title>
<path fill="none" stroke="#c6c5fe" d="M707.33,-190.01C707.33,-190.01 570.67,-190.01 570.67,-190.01 566.83,-190.01 563,-186.17 563,-182.34 563,-182.34 563,-174.67 563,-174.67 563,-170.84 566.83,-167.01 570.67,-167.01 570.67,-167.01 707.33,-167.01 707.33,-167.01 711.17,-167.01 715,-170.84 715,-174.67 715,-174.67 715,-182.34 715,-182.34 715,-186.17 711.17,-190.01 707.33,-190.01"/>
<text text-anchor="middle" x="639" y="-174.81" font-family="Arial" font-size="14.00" fill="#c6c5fe">components/Home.jsx</text>
</g>
<!-- components/Home.jsx&#45;&gt;constants/index.js -->
<g id="edge3" class="edge">
<title>components/Home.jsx&#45;&gt;constants/index.js</title>
<path fill="none" stroke="#757575" d="M715.3,-183.04C775.22,-186.64 858.52,-191.65 917.44,-195.2"/>
<polygon fill="#757575" stroke="#757575" points="917.59,-198.71 927.78,-195.82 918.01,-191.73 917.59,-198.71"/>
</g>
<!-- components/Home.jsx&#45;&gt;store/window.js -->
<g id="edge5" class="edge">
<title>components/Home.jsx&#45;&gt;store/window.js</title>
<path fill="none" stroke="#757575" d="M715.13,-186.38C725.89,-189.28 736.52,-193.21 746,-198.51 780.04,-217.53 808.13,-254.18 823.45,-277.15"/>
<polygon fill="#757575" stroke="#757575" points="820.66,-279.29 829.03,-285.79 826.54,-275.49 820.66,-279.29"/>
</g>
<!-- store/location.js -->
<g id="node5" class="node">
<title>store/location.js</title>
<path fill="none" stroke="#c6c5fe" d="M884.33,-112.01C884.33,-112.01 789.67,-112.01 789.67,-112.01 785.83,-112.01 782,-108.17 782,-104.34 782,-104.34 782,-96.67 782,-96.67 782,-92.84 785.83,-89.01 789.67,-89.01 789.67,-89.01 884.33,-89.01 884.33,-89.01 888.17,-89.01 892,-92.84 892,-96.67 892,-96.67 892,-104.34 892,-104.34 892,-108.17 888.17,-112.01 884.33,-112.01"/>
<text text-anchor="middle" x="837" y="-96.81" font-family="Arial" font-size="14.00" fill="#c6c5fe">store/location.js</text>
</g>
<!-- components/Home.jsx&#45;&gt;store/location.js -->
<g id="edge4" class="edge">
<title>components/Home.jsx&#45;&gt;store/location.js</title>
<path fill="none" stroke="#757575" d="M668.92,-167C702.94,-153.46 759.55,-130.93 797.32,-115.9"/>
<polygon fill="#757575" stroke="#757575" points="798.96,-119.01 806.96,-112.06 796.38,-112.51 798.96,-119.01"/>
</g>
<!-- store/location.js&#45;&gt;constants/index.js -->
<g id="edge15" class="edge">
<title>store/location.js&#45;&gt;constants/index.js</title>
<path fill="none" stroke="#757575" d="M864.64,-112.06C873.54,-116.25 883.38,-121.26 892,-126.51 919.44,-143.21 948.6,-165.91 967.69,-181.54"/>
<polygon fill="#757575" stroke="#757575" points="965.54,-184.29 975.47,-187.97 970,-178.9 965.54,-184.29"/>
</g>
<!-- components/Navbar.jsx -->
<g id="node6" class="node">
<title>components/Navbar.jsx</title>
<path fill="none" stroke="#c6c5fe" d="M710.33,-349.01C710.33,-349.01 567.67,-349.01 567.67,-349.01 563.83,-349.01 560,-345.17 560,-341.34 560,-341.34 560,-333.67 560,-333.67 560,-329.84 563.83,-326.01 567.67,-326.01 567.67,-326.01 710.33,-326.01 710.33,-326.01 714.17,-326.01 718,-329.84 718,-333.67 718,-333.67 718,-341.34 718,-341.34 718,-345.17 714.17,-349.01 710.33,-349.01"/>
<text text-anchor="middle" x="639" y="-333.81" font-family="Arial" font-size="14.00" fill="#c6c5fe">components/Navbar.jsx</text>
</g>
<!-- components/Navbar.jsx&#45;&gt;constants/index.js -->
<g id="edge6" class="edge">
<title>components/Navbar.jsx&#45;&gt;constants/index.js</title>
<path fill="none" stroke="#757575" d="M718.18,-346.59C770.27,-349.09 838.7,-345.32 892,-317.51 933.46,-295.87 963.83,-248.05 978.71,-220.39"/>
<polygon fill="#757575" stroke="#757575" points="981.98,-221.68 983.49,-211.19 975.77,-218.45 981.98,-221.68"/>
</g>
<!-- components/Navbar.jsx&#45;&gt;store/window.js -->
<g id="edge7" class="edge">
<title>components/Navbar.jsx&#45;&gt;store/window.js</title>
<path fill="none" stroke="#757575" d="M696.43,-325.99C720.38,-321.1 748.4,-315.38 773.03,-310.36"/>
<polygon fill="#757575" stroke="#757575" points="773.9,-313.75 782.99,-308.32 772.5,-306.89 773.9,-313.75"/>
</g>
<!-- components/Welcome.jsx -->
<g id="node7" class="node">
<title>components/Welcome.jsx</title>
<path fill="none" stroke="#cfffac" d="M717.33,-390.01C717.33,-390.01 560.67,-390.01 560.67,-390.01 556.83,-390.01 553,-386.17 553,-382.34 553,-382.34 553,-374.67 553,-374.67 553,-370.84 556.83,-367.01 560.67,-367.01 560.67,-367.01 717.33,-367.01 717.33,-367.01 721.17,-367.01 725,-370.84 725,-374.67 725,-374.67 725,-382.34 725,-382.34 725,-386.17 721.17,-390.01 717.33,-390.01"/>
<text text-anchor="middle" x="639" y="-374.81" font-family="Arial" font-size="14.00" fill="#cfffac">components/Welcome.jsx</text>
</g>
<!-- components/WindowControls.jsx -->
<g id="node8" class="node">
<title>components/WindowControls.jsx</title>
<path fill="none" stroke="#c6c5fe" d="M738.33,-470.01C738.33,-470.01 539.67,-470.01 539.67,-470.01 535.83,-470.01 532,-466.17 532,-462.34 532,-462.34 532,-454.67 532,-454.67 532,-450.84 535.83,-447.01 539.67,-447.01 539.67,-447.01 738.33,-447.01 738.33,-447.01 742.17,-447.01 746,-450.84 746,-454.67 746,-454.67 746,-462.34 746,-462.34 746,-466.17 742.17,-470.01 738.33,-470.01"/>
<text text-anchor="middle" x="639" y="-454.81" font-family="Arial" font-size="14.00" fill="#c6c5fe">components/WindowControls.jsx</text>
</g>
<!-- components/WindowControls.jsx&#45;&gt;store/window.js -->
<g id="edge8" class="edge">
<title>components/WindowControls.jsx&#45;&gt;store/window.js</title>
<path fill="none" stroke="#757575" d="M716.82,-446.95C727.18,-443.35 737.24,-438.65 746,-432.51 787.46,-403.42 815.08,-348.6 827.85,-318.54"/>
<polygon fill="#757575" stroke="#757575" points="831.19,-319.6 831.74,-309.02 824.71,-316.95 831.19,-319.6"/>
</g>
<!-- components/index.js -->
<g id="node9" class="node">
<title>components/index.js</title>
<path fill="none" stroke="#c6c5fe" d="M477.33,-381.01C477.33,-381.01 352.67,-381.01 352.67,-381.01 348.83,-381.01 345,-377.17 345,-373.34 345,-373.34 345,-365.67 345,-365.67 345,-361.84 348.83,-358.01 352.67,-358.01 352.67,-358.01 477.33,-358.01 477.33,-358.01 481.17,-358.01 485,-361.84 485,-365.67 485,-365.67 485,-373.34 485,-373.34 485,-377.17 481.17,-381.01 477.33,-381.01"/>
<text text-anchor="middle" x="415" y="-365.81" font-family="Arial" font-size="14.00" fill="#c6c5fe">components/index.js</text>
</g>
<!-- components/index.js&#45;&gt;components/Dock.jsx -->
<g id="edge9" class="edge">
<title>components/index.js&#45;&gt;components/Dock.jsx</title>
<path fill="none" stroke="#757575" d="M483.48,-381.12C487.99,-383.44 492.23,-386.21 496,-389.51 528.46,-417.84 498.73,-452.14 532,-479.51 539.12,-485.36 547.41,-489.7 556.17,-492.9"/>
<polygon fill="#757575" stroke="#757575" points="555.24,-496.27 565.83,-495.93 557.34,-489.59 555.24,-496.27"/>
</g>
<!-- components/index.js&#45;&gt;components/Home.jsx -->
<g id="edge10" class="edge">
<title>components/index.js&#45;&gt;components/Home.jsx</title>
<path fill="none" stroke="#757575" d="M427.38,-357.83C443.91,-340.47 474.89,-306.36 496,-273.51 515.99,-242.4 502.67,-221.03 532,-198.51 538.44,-193.56 545.74,-189.71 553.43,-186.74"/>
<polygon fill="#757575" stroke="#757575" points="554.6,-190.04 562.96,-183.53 552.36,-183.4 554.6,-190.04"/>
</g>
<!-- components/index.js&#45;&gt;components/Navbar.jsx -->
<g id="edge11" class="edge">
<title>components/index.js&#45;&gt;components/Navbar.jsx</title>
<path fill="none" stroke="#757575" d="M485.03,-359.56C505.46,-356.61 528.13,-353.34 549.61,-350.25"/>
<polygon fill="#757575" stroke="#757575" points="550.32,-353.68 559.72,-348.79 549.32,-346.75 550.32,-353.68"/>
</g>
<!-- components/index.js&#45;&gt;components/Welcome.jsx -->
<g id="edge12" class="edge">
<title>components/index.js&#45;&gt;components/Welcome.jsx</title>
<path fill="none" stroke="#757575" d="M485.03,-372.3C503.34,-373.05 523.45,-373.86 542.89,-374.65"/>
<polygon fill="#757575" stroke="#757575" points="542.85,-378.15 552.98,-375.06 543.13,-371.16 542.85,-378.15"/>
</g>
<!-- components/index.js&#45;&gt;components/WindowControls.jsx -->
<g id="edge13" class="edge">
<title>components/index.js&#45;&gt;components/WindowControls.jsx</title>
<path fill="none" stroke="#757575" d="M468.97,-381.1C478.08,-383.56 487.39,-386.38 496,-389.51 536.27,-404.14 580.31,-426.63 608.5,-441.93"/>
<polygon fill="#757575" stroke="#757575" points="606.97,-445.08 617.42,-446.82 610.33,-438.94 606.97,-445.08"/>
</g>
<!-- hoc/WindowWrapper.jsx -->
<g id="node10" class="node">
<title>hoc/WindowWrapper.jsx</title>
<path fill="none" stroke="#c6c5fe" d="M488.33,-422.01C488.33,-422.01 341.67,-422.01 341.67,-422.01 337.83,-422.01 334,-418.17 334,-414.34 334,-414.34 334,-406.67 334,-406.67 334,-402.84 337.83,-399.01 341.67,-399.01 341.67,-399.01 488.33,-399.01 488.33,-399.01 492.17,-399.01 496,-402.84 496,-406.67 496,-406.67 496,-414.34 496,-414.34 496,-418.17 492.17,-422.01 488.33,-422.01"/>
<text text-anchor="middle" x="415" y="-406.81" font-family="Arial" font-size="14.00" fill="#c6c5fe">hoc/WindowWrapper.jsx</text>
</g>
<!-- hoc/WindowWrapper.jsx&#45;&gt;store/window.js -->
<g id="edge14" class="edge">
<title>hoc/WindowWrapper.jsx&#45;&gt;store/window.js</title>
<path fill="none" stroke="#757575" d="M474.99,-422.01C543.65,-432.45 658.76,-440.64 746,-399.51 782.58,-382.26 810.5,-342.43 824.97,-317.96"/>
<polygon fill="#757575" stroke="#757575" points="828.1,-319.54 830.01,-309.12 822.02,-316.07 828.1,-319.54"/>
</g>
<!-- setupTests.js -->
<g id="node11" class="node">
<title>setupTests.js</title>
<path fill="none" stroke="#cfffac" d="M98.83,-422.01C98.83,-422.01 19.17,-422.01 19.17,-422.01 15.33,-422.01 11.5,-418.17 11.5,-414.34 11.5,-414.34 11.5,-406.67 11.5,-406.67 11.5,-402.84 15.33,-399.01 19.17,-399.01 19.17,-399.01 98.83,-399.01 98.83,-399.01 102.67,-399.01 106.5,-402.84 106.5,-406.67 106.5,-406.67 106.5,-414.34 106.5,-414.34 106.5,-418.17 102.67,-422.01 98.83,-422.01"/>
<text text-anchor="middle" x="59" y="-406.81" font-family="Arial" font-size="14.00" fill="#cfffac">setupTests.js</text>
</g>
<!-- store/location.test.js -->
<g id="node12" class="node">
<title>store/location.test.js</title>
<path fill="none" stroke="#c6c5fe" d="M699.33,-72.01C699.33,-72.01 578.67,-72.01 578.67,-72.01 574.83,-72.01 571,-68.17 571,-64.34 571,-64.34 571,-56.67 571,-56.67 571,-52.84 574.83,-49.01 578.67,-49.01 578.67,-49.01 699.33,-49.01 699.33,-49.01 703.17,-49.01 707,-52.84 707,-56.67 707,-56.67 707,-64.34 707,-64.34 707,-68.17 703.17,-72.01 699.33,-72.01"/>
<text text-anchor="middle" x="639" y="-56.81" font-family="Arial" font-size="14.00" fill="#c6c5fe">store/location.test.js</text>
</g>
<!-- store/location.test.js&#45;&gt;constants/index.js -->
<g id="edge16" class="edge">
<title>store/location.test.js&#45;&gt;constants/index.js</title>
<path fill="none" stroke="#757575" d="M707.09,-51.61C760.27,-47.73 834.89,-49.54 892,-79.51 934.23,-101.66 964.63,-151.03 979.24,-179.05"/>
<polygon fill="#757575" stroke="#757575" points="976.11,-180.63 983.74,-187.99 982.37,-177.48 976.11,-180.63"/>
</g>
<!-- store/location.test.js&#45;&gt;store/location.js -->
<g id="edge17" class="edge">
<title>store/location.test.js&#45;&gt;store/location.js</title>
<path fill="none" stroke="#757575" d="M696.43,-72.02C720.08,-76.85 747.71,-82.49 772.11,-87.47"/>
<polygon fill="#757575" stroke="#757575" points="771.49,-90.91 781.99,-89.48 772.89,-84.05 771.49,-90.91"/>
</g>
<!-- store/window.test.js -->
<g id="node13" class="node">
<title>store/window.test.js</title>
<path fill="none" stroke="#c6c5fe" d="M698.33,-231.01C698.33,-231.01 579.67,-231.01 579.67,-231.01 575.83,-231.01 572,-227.17 572,-223.34 572,-223.34 572,-215.67 572,-215.67 572,-211.84 575.83,-208.01 579.67,-208.01 579.67,-208.01 698.33,-208.01 698.33,-208.01 702.17,-208.01 706,-211.84 706,-215.67 706,-215.67 706,-223.34 706,-223.34 706,-227.17 702.17,-231.01 698.33,-231.01"/>
<text text-anchor="middle" x="639" y="-215.81" font-family="Arial" font-size="14.00" fill="#c6c5fe">store/window.test.js</text>
</g>
<!-- store/window.test.js&#45;&gt;constants/index.js -->
<g id="edge19" class="edge">
<title>store/window.test.js&#45;&gt;constants/index.js</title>
<path fill="none" stroke="#757575" d="M706.05,-215.72C766.52,-212.25 855.76,-207.14 917.79,-203.59"/>
<polygon fill="#757575" stroke="#757575" points="918.11,-207.07 927.89,-203.01 917.71,-200.09 918.11,-207.07"/>
</g>
<!-- store/window.test.js&#45;&gt;store/window.js -->
<g id="edge20" class="edge">
<title>store/window.test.js&#45;&gt;store/window.js</title>
<path fill="none" stroke="#757575" d="M699.81,-231.04C715.14,-234.84 731.41,-239.64 746,-245.51 768.96,-254.73 793.14,-268.99 810.65,-280.25"/>
<polygon fill="#757575" stroke="#757575" points="808.87,-283.27 819.15,-285.81 812.7,-277.41 808.87,-283.27"/>
</g>
<!-- windows/Contact.jsx -->
<g id="node14" class="node">
<title>windows/Contact.jsx</title>
<path fill="none" stroke="#c6c5fe" d="M287.83,-299.01C287.83,-299.01 164.17,-299.01 164.17,-299.01 160.33,-299.01 156.5,-295.17 156.5,-291.34 156.5,-291.34 156.5,-283.67 156.5,-283.67 156.5,-279.84 160.33,-276.01 164.17,-276.01 164.17,-276.01 287.83,-276.01 287.83,-276.01 291.67,-276.01 295.5,-279.84 295.5,-283.67 295.5,-283.67 295.5,-291.34 295.5,-291.34 295.5,-295.17 291.67,-299.01 287.83,-299.01"/>
<text text-anchor="middle" x="226" y="-283.81" font-family="Arial" font-size="14.00" fill="#c6c5fe">windows/Contact.jsx</text>
</g>
<!-- windows/Contact.jsx&#45;&gt;constants/index.js -->
<g id="edge22" class="edge">
<title>windows/Contact.jsx&#45;&gt;constants/index.js</title>
<path fill="none" stroke="#757575" d="M254.95,-275.85C303.9,-255.39 408.3,-211.58 496,-173.51 512.06,-166.53 514.87,-161.14 532,-157.51 678.04,-126.51 855.14,-163.39 939.58,-185.39"/>
<polygon fill="#757575" stroke="#757575" points="938.85,-188.82 949.41,-187.99 940.64,-182.05 938.85,-188.82"/>
</g>
<!-- windows/Contact.jsx&#45;&gt;components/index.js -->
<g id="edge21" class="edge">
<title>windows/Contact.jsx&#45;&gt;components/index.js</title>
<path fill="none" stroke="#757575" d="M273.7,-299.1C281.9,-301.58 290.28,-304.4 298,-307.51 329.46,-320.17 363.47,-339.01 386.47,-352.6"/>
<polygon fill="#757575" stroke="#757575" points="384.94,-355.76 395.32,-357.88 388.53,-349.75 384.94,-355.76"/>
</g>
<!-- windows/Contact.jsx&#45;&gt;hoc/WindowWrapper.jsx -->
<g id="edge23" class="edge">
<title>windows/Contact.jsx&#45;&gt;hoc/WindowWrapper.jsx</title>
<path fill="none" stroke="#757575" d="M285.09,-299.01C289.74,-301.34 294.13,-304.14 298,-307.51 328.03,-333.63 303.74,-363.65 334,-389.51 335.77,-391.02 337.65,-392.43 339.59,-393.74"/>
<polygon fill="#757575" stroke="#757575" points="338.15,-396.94 348.58,-398.85 341.62,-390.86 338.15,-396.94"/>
</g>
<!-- windows/Finder.jsx -->
<g id="node15" class="node">
<title>windows/Finder.jsx</title>
<path fill="none" stroke="#c6c5fe" d="M283.33,-242.01C283.33,-242.01 168.67,-242.01 168.67,-242.01 164.83,-242.01 161,-238.17 161,-234.34 161,-234.34 161,-226.67 161,-226.67 161,-222.84 164.83,-219.01 168.67,-219.01 168.67,-219.01 283.33,-219.01 283.33,-219.01 287.17,-219.01 291,-222.84 291,-226.67 291,-226.67 291,-234.34 291,-234.34 291,-238.17 287.17,-242.01 283.33,-242.01"/>
<text text-anchor="middle" x="226" y="-226.81" font-family="Arial" font-size="14.00" fill="#c6c5fe">windows/Finder.jsx</text>
</g>
<!-- windows/Finder.jsx&#45;&gt;constants/index.js -->
<g id="edge25" class="edge">
<title>windows/Finder.jsx&#45;&gt;constants/index.js</title>
<path fill="none" stroke="#757575" d="M236.92,-218.9C254.7,-198.65 293.92,-156.43 334,-129.51 414.24,-75.6 437.53,-59.97 532,-39.51 688.42,-5.62 753.96,32.5 892,-48.51 941.92,-77.8 970.47,-144.1 982.38,-178.27"/>
<polygon fill="#757575" stroke="#757575" points="979.06,-179.38 985.54,-187.76 985.7,-177.17 979.06,-179.38"/>
</g>
<!-- windows/Finder.jsx&#45;&gt;store/window.js -->
<g id="edge28" class="edge">
<title>windows/Finder.jsx&#45;&gt;store/window.js</title>
<path fill="none" stroke="#757575" d="M291.02,-237.55C408.26,-250.45 656.09,-277.71 772.76,-290.55"/>
<polygon fill="#757575" stroke="#757575" points="772.63,-294.05 782.95,-291.67 773.4,-287.1 772.63,-294.05"/>
</g>
<!-- windows/Finder.jsx&#45;&gt;store/location.js -->
<g id="edge27" class="edge">
<title>windows/Finder.jsx&#45;&gt;store/location.js</title>
<path fill="none" stroke="#757575" d="M252.87,-218.96C304.67,-196.44 425.29,-146.88 532,-124.51 613.6,-107.4 709.85,-102.26 771.84,-100.83"/>
<polygon fill="#757575" stroke="#757575" points="771.94,-104.33 781.87,-100.63 771.8,-97.33 771.94,-104.33"/>
</g>
<!-- windows/Finder.jsx&#45;&gt;components/index.js -->
<g id="edge24" class="edge">
<title>windows/Finder.jsx&#45;&gt;components/index.js</title>
<path fill="none" stroke="#757575" d="M253.88,-242.13C267.56,-248.54 284.18,-257.09 298,-266.51 335.48,-292.02 373.82,-328.51 395.69,-350.51"/>
<polygon fill="#757575" stroke="#757575" points="393.46,-353.24 402.97,-357.92 398.45,-348.33 393.46,-353.24"/>
</g>
<!-- windows/Finder.jsx&#45;&gt;hoc/WindowWrapper.jsx -->
<g id="edge26" class="edge">
<title>windows/Finder.jsx&#45;&gt;hoc/WindowWrapper.jsx</title>
<path fill="none" stroke="#757575" d="M263.39,-242.14C275.89,-247.74 288.99,-255.66 298,-266.51 334.39,-310.32 293.16,-349.8 334,-389.51 335.31,-390.78 336.69,-391.98 338.12,-393.11"/>
<polygon fill="#757575" stroke="#757575" points="336.61,-396.3 346.89,-398.83 340.43,-390.43 336.61,-396.3"/>
</g>
<!-- windows/Image.jsx -->
<g id="node16" class="node">
<title>windows/Image.jsx</title>
<path fill="none" stroke="#c6c5fe" d="M283.83,-340.01C283.83,-340.01 168.17,-340.01 168.17,-340.01 164.33,-340.01 160.5,-336.17 160.5,-332.34 160.5,-332.34 160.5,-324.67 160.5,-324.67 160.5,-320.84 164.33,-317.01 168.17,-317.01 168.17,-317.01 283.83,-317.01 283.83,-317.01 287.67,-317.01 291.5,-320.84 291.5,-324.67 291.5,-324.67 291.5,-332.34 291.5,-332.34 291.5,-336.17 287.67,-340.01 283.83,-340.01"/>
<text text-anchor="middle" x="226" y="-324.81" font-family="Arial" font-size="14.00" fill="#c6c5fe">windows/Image.jsx</text>
</g>
<!-- windows/Image.jsx&#45;&gt;store/window.js -->
<g id="edge31" class="edge">
<title>windows/Image.jsx&#45;&gt;store/window.js</title>
<path fill="none" stroke="#757575" d="M291.6,-325.22C408.97,-319.24 655.86,-306.67 772.46,-300.74"/>
<polygon fill="#757575" stroke="#757575" points="772.84,-304.22 782.65,-300.22 772.49,-297.23 772.84,-304.22"/>
</g>
<!-- windows/Image.jsx&#45;&gt;components/index.js -->
<g id="edge29" class="edge">
<title>windows/Image.jsx&#45;&gt;components/index.js</title>
<path fill="none" stroke="#757575" d="M279.59,-340.04C301.99,-344.95 328.29,-350.71 351.67,-355.84"/>
<polygon fill="#757575" stroke="#757575" points="350.97,-359.27 361.48,-357.99 352.47,-352.43 350.97,-359.27"/>
</g>
<!-- windows/Image.jsx&#45;&gt;hoc/WindowWrapper.jsx -->
<g id="edge30" class="edge">
<title>windows/Image.jsx&#45;&gt;hoc/WindowWrapper.jsx</title>
<path fill="none" stroke="#757575" d="M280.78,-340.02C286.81,-342.36 292.69,-345.16 298,-348.51 318.51,-361.44 313.37,-376.76 334,-389.51 337.34,-391.57 340.88,-393.43 344.54,-395.11"/>
<polygon fill="#757575" stroke="#757575" points="343.25,-398.37 353.83,-398.93 345.91,-391.89 343.25,-398.37"/>
</g>
<!-- windows/Resume.jsx -->
<g id="node17" class="node">
<title>windows/Resume.jsx</title>
<path fill="none" stroke="#c6c5fe" d="M289.83,-381.01C289.83,-381.01 162.17,-381.01 162.17,-381.01 158.33,-381.01 154.5,-377.17 154.5,-373.34 154.5,-373.34 154.5,-365.67 154.5,-365.67 154.5,-361.84 158.33,-358.01 162.17,-358.01 162.17,-358.01 289.83,-358.01 289.83,-358.01 293.67,-358.01 297.5,-361.84 297.5,-365.67 297.5,-365.67 297.5,-373.34 297.5,-373.34 297.5,-377.17 293.67,-381.01 289.83,-381.01"/>
<text text-anchor="middle" x="226" y="-365.81" font-family="Arial" font-size="14.00" fill="#c6c5fe">windows/Resume.jsx</text>
</g>
<!-- windows/Resume.jsx&#45;&gt;components/index.js -->
<g id="edge32" class="edge">
<title>windows/Resume.jsx&#45;&gt;components/index.js</title>
<path fill="none" stroke="#757575" d="M297.7,-369.51C309.74,-369.51 322.31,-369.51 334.56,-369.51"/>
<polygon fill="#757575" stroke="#757575" points="334.75,-373.01 344.75,-369.51 334.75,-366.01 334.75,-373.01"/>
</g>
<!-- windows/Resume.jsx&#45;&gt;hoc/WindowWrapper.jsx -->
<g id="edge33" class="edge">
<title>windows/Resume.jsx&#45;&gt;hoc/WindowWrapper.jsx</title>
<path fill="none" stroke="#757575" d="M279.59,-381.04C301.99,-385.95 328.29,-391.71 351.67,-396.84"/>
<polygon fill="#757575" stroke="#757575" points="350.97,-400.27 361.48,-398.99 352.47,-393.43 350.97,-400.27"/>
</g>
<!-- windows/Safari.jsx -->
<g id="node18" class="node">
<title>windows/Safari.jsx</title>
<path fill="none" stroke="#c6c5fe" d="M282.33,-422.01C282.33,-422.01 169.67,-422.01 169.67,-422.01 165.83,-422.01 162,-418.17 162,-414.34 162,-414.34 162,-406.67 162,-406.67 162,-402.84 165.83,-399.01 169.67,-399.01 169.67,-399.01 282.33,-399.01 282.33,-399.01 286.17,-399.01 290,-402.84 290,-406.67 290,-406.67 290,-414.34 290,-414.34 290,-418.17 286.17,-422.01 282.33,-422.01"/>
<text text-anchor="middle" x="226" y="-406.81" font-family="Arial" font-size="14.00" fill="#c6c5fe">windows/Safari.jsx</text>
</g>
<!-- windows/Safari.jsx&#45;&gt;components/index.js -->
<g id="edge34" class="edge">
<title>windows/Safari.jsx&#45;&gt;components/index.js</title>
<path fill="none" stroke="#757575" d="M279.59,-398.98C301.99,-394.06 328.29,-388.3 351.67,-383.17"/>
<polygon fill="#757575" stroke="#757575" points="352.47,-386.58 361.48,-381.02 350.97,-379.74 352.47,-386.58"/>
</g>
<!-- windows/Safari.jsx&#45;&gt;hoc/WindowWrapper.jsx -->
<g id="edge35" class="edge">
<title>windows/Safari.jsx&#45;&gt;hoc/WindowWrapper.jsx</title>
<path fill="none" stroke="#757575" d="M290.05,-410.51C300.96,-410.51 312.48,-410.51 323.94,-410.51"/>
<polygon fill="#757575" stroke="#757575" points="323.98,-414.01 333.98,-410.51 323.98,-407.01 323.98,-414.01"/>
</g>
<!-- windows/Terminal.jsx -->
<g id="node19" class="node">
<title>windows/Terminal.jsx</title>
<path fill="none" stroke="#c6c5fe" d="M290.33,-523.01C290.33,-523.01 161.67,-523.01 161.67,-523.01 157.83,-523.01 154,-519.17 154,-515.34 154,-515.34 154,-507.67 154,-507.67 154,-503.84 157.83,-500.01 161.67,-500.01 161.67,-500.01 290.33,-500.01 290.33,-500.01 294.17,-500.01 298,-503.84 298,-507.67 298,-507.67 298,-515.34 298,-515.34 298,-519.17 294.17,-523.01 290.33,-523.01"/>
<text text-anchor="middle" x="226" y="-507.81" font-family="Arial" font-size="14.00" fill="#c6c5fe">windows/Terminal.jsx</text>
</g>
<!-- windows/Terminal.jsx&#45;&gt;constants/index.js -->
<g id="edge37" class="edge">
<title>windows/Terminal.jsx&#45;&gt;constants/index.js</title>
<path fill="none" stroke="#757575" d="M262.41,-523.07C348.43,-549.17 574,-605.69 746,-542.51 825.91,-513.15 841.03,-486.7 892,-418.51 939.99,-354.3 970.71,-262.61 982.95,-221.23"/>
<polygon fill="#757575" stroke="#757575" points="986.38,-221.98 985.79,-211.4 979.66,-220.04 986.38,-221.98"/>
</g>
<!-- windows/Terminal.jsx&#45;&gt;components/WindowControls.jsx -->
<g id="edge36" class="edge">
<title>windows/Terminal.jsx&#45;&gt;components/WindowControls.jsx</title>
<path fill="none" stroke="#757575" d="M298.12,-502.33C364.5,-493.77 464.19,-480.92 538.46,-471.34"/>
<polygon fill="#757575" stroke="#757575" points="539.29,-474.76 548.76,-470.01 538.4,-467.82 539.29,-474.76"/>
</g>
<!-- windows/Terminal.jsx&#45;&gt;hoc/WindowWrapper.jsx -->
<g id="edge38" class="edge">
<title>windows/Terminal.jsx&#45;&gt;hoc/WindowWrapper.jsx</title>
<path fill="none" stroke="#757575" d="M248.45,-499.92C281.62,-482.01 345.47,-447.52 383.45,-427.01"/>
<polygon fill="#757575" stroke="#757575" points="385.38,-429.94 392.51,-422.11 382.05,-423.78 385.38,-429.94"/>
</g>
<!-- windows/Text.jsx -->
<g id="node20" class="node">
<title>windows/Text.jsx</title>
<path fill="none" stroke="#c6c5fe" d="M276.83,-463.01C276.83,-463.01 175.17,-463.01 175.17,-463.01 171.33,-463.01 167.5,-459.17 167.5,-455.34 167.5,-455.34 167.5,-447.67 167.5,-447.67 167.5,-443.84 171.33,-440.01 175.17,-440.01 175.17,-440.01 276.83,-440.01 276.83,-440.01 280.67,-440.01 284.5,-443.84 284.5,-447.67 284.5,-447.67 284.5,-455.34 284.5,-455.34 284.5,-459.17 280.67,-463.01 276.83,-463.01"/>
<text text-anchor="middle" x="226" y="-447.81" font-family="Arial" font-size="14.00" fill="#c6c5fe">windows/Text.jsx</text>
</g>
<!-- windows/Text.jsx&#45;&gt;store/window.js -->
<g id="edge41" class="edge">
<title>windows/Text.jsx&#45;&gt;store/window.js</title>
<path fill="none" stroke="#757575" d="M265.48,-463.11C371.87,-494.21 667.36,-573.57 746,-520.51 814.58,-474.23 830.91,-365.98 834.8,-319.42"/>
<polygon fill="#757575" stroke="#757575" points="838.3,-319.46 835.52,-309.24 831.32,-318.96 838.3,-319.46"/>
</g>
<!-- windows/Text.jsx&#45;&gt;components/index.js -->
<g id="edge39" class="edge">
<title>windows/Text.jsx&#45;&gt;components/index.js</title>
<path fill="none" stroke="#757575" d="M281.19,-439.9C287.09,-437.58 292.82,-434.81 298,-431.51 318.72,-418.27 313.09,-402.43 334,-389.51 336.51,-387.95 339.14,-386.52 341.84,-385.2"/>
<polygon fill="#757575" stroke="#757575" points="343.5,-388.3 351.3,-381.12 340.73,-381.87 343.5,-388.3"/>
</g>
<!-- windows/Text.jsx&#45;&gt;hoc/WindowWrapper.jsx -->
<g id="edge40" class="edge">
<title>windows/Text.jsx&#45;&gt;hoc/WindowWrapper.jsx</title>
<path fill="none" stroke="#757575" d="M279.59,-439.98C301.99,-435.06 328.29,-429.3 351.67,-424.17"/>
<polygon fill="#757575" stroke="#757575" points="352.47,-427.58 361.48,-422.02 350.97,-420.74 352.47,-427.58"/>
</g>
<!-- windows/index.js -->
<g id="node21" class="node">
<title>windows/index.js</title>
<path fill="none" stroke="#c6c5fe" d="M110.33,-381.01C110.33,-381.01 7.67,-381.01 7.67,-381.01 3.83,-381.01 0,-377.17 0,-373.34 0,-373.34 0,-365.67 0,-365.67 0,-361.84 3.83,-358.01 7.67,-358.01 7.67,-358.01 110.33,-358.01 110.33,-358.01 114.17,-358.01 118,-361.84 118,-365.67 118,-365.67 118,-373.34 118,-373.34 118,-377.17 114.17,-381.01 110.33,-381.01"/>
<text text-anchor="middle" x="59" y="-365.81" font-family="Arial" font-size="14.00" fill="#c6c5fe">windows/index.js</text>
</g>
<!-- windows/index.js&#45;&gt;windows/Contact.jsx -->
<g id="edge42" class="edge">
<title>windows/index.js&#45;&gt;windows/Contact.jsx</title>
<path fill="none" stroke="#757575" d="M74.46,-357.89C92.24,-344.13 123.77,-321.32 154,-307.51 158.04,-305.66 162.29,-303.94 166.62,-302.36"/>
<polygon fill="#757575" stroke="#757575" points="167.83,-305.65 176.16,-299.11 165.57,-299.02 167.83,-305.65"/>
</g>
<!-- windows/index.js&#45;&gt;windows/Finder.jsx -->
<g id="edge43" class="edge">
<title>windows/index.js&#45;&gt;windows/Finder.jsx</title>
<path fill="none" stroke="#757575" d="M68.46,-357.72C83.7,-337.14 117.58,-294.2 154,-266.51 164.06,-258.86 175.98,-252.08 187.16,-246.53"/>
<polygon fill="#757575" stroke="#757575" points="188.8,-249.63 196.32,-242.16 185.79,-243.31 188.8,-249.63"/>
</g>
<!-- windows/index.js&#45;&gt;windows/Image.jsx -->
<g id="edge44" class="edge">
<title>windows/index.js&#45;&gt;windows/Image.jsx</title>
<path fill="none" stroke="#757575" d="M106.4,-357.98C125.81,-353.15 148.55,-347.5 168.89,-342.45"/>
<polygon fill="#757575" stroke="#757575" points="169.8,-345.83 178.66,-340.02 168.11,-339.03 169.8,-345.83"/>
</g>
<!-- windows/index.js&#45;&gt;windows/Resume.jsx -->
<g id="edge45" class="edge">
<title>windows/index.js&#45;&gt;windows/Resume.jsx</title>
<path fill="none" stroke="#757575" d="M118.17,-369.51C126.58,-369.51 135.35,-369.51 144.1,-369.51"/>
<polygon fill="#757575" stroke="#757575" points="144.33,-373.01 154.33,-369.51 144.33,-366.01 144.33,-373.01"/>
</g>
<!-- windows/index.js&#45;&gt;windows/Safari.jsx -->
<g id="edge46" class="edge">
<title>windows/index.js&#45;&gt;windows/Safari.jsx</title>
<path fill="none" stroke="#757575" d="M106.4,-381.04C125.81,-385.86 148.55,-391.51 168.89,-396.56"/>
<polygon fill="#757575" stroke="#757575" points="168.11,-399.98 178.66,-398.99 169.8,-393.18 168.11,-399.98"/>
</g>
<!-- windows/index.js&#45;&gt;windows/Terminal.jsx -->
<g id="edge47" class="edge">
<title>windows/index.js&#45;&gt;windows/Terminal.jsx</title>
<path fill="none" stroke="#757575" d="M105.8,-381.08C110.23,-383.4 114.4,-386.18 118,-389.51 147.51,-416.82 126.92,-442.78 154,-472.51 162.51,-481.85 173.79,-489.43 184.85,-495.35"/>
<polygon fill="#757575" stroke="#757575" points="183.51,-498.59 194.02,-499.93 186.64,-492.33 183.51,-498.59"/>
</g>
<!-- windows/index.js&#45;&gt;windows/Text.jsx -->
<g id="edge48" class="edge">
<title>windows/index.js&#45;&gt;windows/Text.jsx</title>
<path fill="none" stroke="#757575" d="M102.16,-381.04C107.72,-383.41 113.16,-386.21 118,-389.51 138.33,-403.33 133.28,-418.27 154,-431.51 156.43,-433.06 158.98,-434.49 161.61,-435.81"/>
<polygon fill="#757575" stroke="#757575" points="160.25,-439.04 170.81,-439.9 163.1,-432.64 160.25,-439.04"/>
</g>
</g>
</svg>
